<?xml version="1.0" encoding="utf-8"?>
<!-- Generator: Adobe Illustrator 22.0.1, SVG Export Plug-In . SVG Version: 6.00 Build 0)  -->
<svg version="1.1" id="Layer_1" xmlns="http://www.w3.org/2000/svg" xmlns:xlink="http://www.w3.org/1999/xlink" x="0px" y="0px"
	 viewBox="0 0 512 384" style="enable-background:new 0 0 512 384;" xml:space="preserve">
<style type="text/css">
	.st0{fill:#3F6271;}
	.st1{fill:#BEB3A7;}
	.st2{fill:#7A5431;}
	.st3{fill:#9C6B3E;}
	.st4{fill:#FFFFFF;}
	.st5{clip-path:url(#SVGID_2_);}
	.st6{fill:#C1C1C1;}
	.st7{fill:#EAEAEA;}
	.st8{clip-path:url(#XMLID_3_);}
	.st9{fill:#469146;}
	.st10{fill:#2C772C;}
	.st11{fill:#5BB25E;}
</style>
<rect class="st0" width="512" height="384"/>
<g id="Layer_1_1_">
</g>
<rect class="st1" width="512" height="205.7"/>
<rect y="331" class="st2" width="512" height="52"/>
<rect y="331" class="st3" width="512" height="7.3"/>
<path class="st4" d="M199,68.3L199,68.3c-5.2,0-9.3-4.2-9.3-9.3v-4.7v0c0-7.7-6.3-14-14-14h-53.2c-7.7,0-14,6.3-14,14v0V59
	c0,5.2-4.2,9.3-9.3,9.3h-3.5c-7.7,0-14,6.3-14,14v0c0,7.7,6.3,14,14,14H199c7.7,0,14-6.3,14-14v0C213,74.6,206.7,68.3,199,68.3z"/>
<path class="st4" d="M421,102.8L421,102.8c-5.2,0-9.3-4.2-9.3-9.3v-4.7v0c0-7.7-6.3-14-14-14h-32.2c-7.7,0-14,6.3-14,14v0v4.7
	c0,5.2-4.2,9.3-9.3,9.3H282c-7.7,0-14,6.3-14,14v0c0,7.7,6.3,14,14,14h139c7.7,0,14-6.3,14-14v0C435,109.1,428.7,102.8,421,102.8z"
	/>
<g>
	<defs>
		<rect id="SVGID_1_" width="512" height="320"/>
	</defs>
	<clipPath id="SVGID_2_">
		<use xlink:href="#SVGID_1_"  style="overflow:visible;"/>
	</clipPath>
	<g class="st5">
		<path class="st3" d="M469-55.7H41c-15.5,0-28,12.5-28,28v301.5c0,15.5,12.5,28,28,28h428c15.5,0,28-12.5,28-28V-27.6
			C497-43.1,484.5-55.7,469-55.7z"/>
		<path class="st3" d="M469-55.7H41c-15.5,0-28,12.5-28,28v301.5c0,15.5,12.5,28,28,28h428c15.5,0,28-12.5,28-28V-27.6
			C497-43.1,484.5-55.7,469-55.7z"/>
		<path class="st3" d="M41,291.9c-9.9,0-18-8.1-18-18V-27.6c0-9.9,8.1-18,18-18h428c9.9,0,18,8.1,18,18v301.5c0,9.9-8.1,18-18,18H41
			z"/>
		<path class="st2" d="M41,295.9c-9.9,0-18-8.1-18-18V-23.6c0-9.9,8.1-18,18-18h428c9.9,0,18,8.1,18,18v301.5c0,9.9-8.1,18-18,18H41
			z"/>
		<path class="st6" d="M41,291.9c-9.9,0-18-8.1-18-18V-27.6c0-9.9,8.1-18,18-18h428c9.9,0,18,8.1,18,18v301.5c0,9.9-8.1,18-18,18H41
			z"/>
		<path class="st7" d="M41,285.9c-4.4,0-8-3.6-8-8V-23.6c0-4.4,3.6-8,8-8h428c4.4,0,8,3.6,8,8v301.5c0,4.4-3.6,8-8,8H41z"/>
		<g>
			<defs>
				<path id="XMLID_1_" d="M41,281.9c-4.4,0-8-3.6-8-8V-27.6c0-4.4,3.6-8,8-8h428c4.4,0,8,3.6,8,8v301.5c0,4.4-3.6,8-8,8H41z"/>
			</defs>
			<use xlink:href="#XMLID_1_"  style="overflow:visible;fill:#5BAAB5;"/>
			<clipPath id="XMLID_3_">
				<use xlink:href="#XMLID_1_"  style="overflow:visible;"/>
			</clipPath>
			<g class="st8">
				<path class="st9" d="M93,148.8H39.1c-22.4,0-42.5,13.7-50.7,34.5l-19.9,50.6c-14.1,35.8,12.3,74.6,50.7,74.6h93.7
					c38.5,0,64.9-38.8,50.7-74.6l-19.9-50.6C135.5,162.5,115.4,148.8,93,148.8z"/>
				<path class="st10" d="M226.6,241.3L226.6,241.3c11.8-13.9,29.2-22,47.4-22h54c16.5,0,32.3-6.6,44-18.2l16.2-16.2
					c11.7-11.7,27.5-18.2,44-18.2h82.2c16.5,0,32.3,6.6,44,18.2l52.7,52.7c39.2,39.2,11.4,197.4-44,197.4h-293
					C221.1,435,192.4,281.7,226.6,241.3z"/>
				<path class="st9" d="M296,195h-43c-17.9,0-33.9,10.9-40.5,27.6l-15.9,40.4c-11.3,28.6,9.8,59.5,40.5,59.5H312
					c30.7,0,51.8-30.9,40.5-59.5l-15.9-40.4C330,205.9,313.9,195,296,195z"/>
				<path class="st11" d="M20.6,314.4L73.2,229c17-27.7,47.2-44.5,79.7-44.5h19c24.8,0,48.6,9.9,66.1,27.4l9.9,9.9
					c17.5,17.5,41.3,27.4,66.1,27.4h14.8c24.8,0,48.6,9.9,66.1,27.4l61.3,61.3H-9.4L20.6,314.4z"/>
			</g>
		</g>
	</g>
</g>
</svg>
