<?xml version="1.0" encoding="utf-8"?>
<!-- Generator: Adobe Illustrator 21.1.0, SVG Export Plug-In . SVG Version: 6.00 Build 0)  -->
<svg version="1.1" xmlns="http://www.w3.org/2000/svg" xmlns:xlink="http://www.w3.org/1999/xlink" x="0px" y="0px"
	 viewBox="0 0 512 384" style="enable-background:new 0 0 512 384;" xml:space="preserve">
<style type="text/css">
	.st0{fill:#363636;}
	.st1{fill:#424242;}
	.st2{fill:#F0F0F0;}
	.st3{fill:#D45115;}
	.st4{fill:#D3D7E0;}
	.st5{fill:#E5E9F6;}
	.st6{fill:#F7C2C8;}
	.st7{fill:#F76128;}
	.st8{opacity:0.12;}
	.st9{fill:#B6B8C3;}
	.st10{fill:#E4EBF8;}
	.st11{fill:#C5CCD9;}
	.st12{fill:#FFFFFF;}
	.st13{fill:#E4E4F3;}
	.st14{fill:#FFB66F;}
	.st15{fill:#57473E;}
	.st16{fill:#515451;}
	.st17{fill:#626662;}
	.st18{fill:#5D5C58;}
	.st19{fill:#6B6A65;}
	.st20{fill:#FFCE9E;}
	.st21{fill:#B36E2D;}
	.st22{fill:#FF6139;}
	.st23{fill:#CECDCC;}
	.st24{fill:#E8E6E3;}
	.st25{fill:none;}
	.st26{fill:#FF9F05;}
	.st27{fill:#F09605;}
	.st28{fill:none;stroke:#FFB570;stroke-width:8.8858;stroke-linecap:round;stroke-miterlimit:10;}
	.st29{fill:#DFE7EB;}
	.st30{fill:#C1CCD4;}
	.st31{fill:none;stroke:#E4E9EC;stroke-width:2.2055;stroke-linecap:round;stroke-miterlimit:10;}
	.st32{fill:#565773;}
	.st33{fill:#242530;}
	.st34{fill:#3B3D52;}
	.st35{fill:#FF8914;}
	.st36{fill:#EFF4F7;}
	.st37{fill:#FF120C;}
	.st38{fill:#F5FBFF;}
	.st39{fill:#5E5959;}
	.st40{fill:#696363;}
	.st41{fill:#97989E;}
	.st42{fill:#B2B3BA;}
	.st43{opacity:0.2;}
	.st44{fill:#472E19;}
	.st45{fill:none;stroke:#472E19;stroke-width:3.0944;stroke-miterlimit:10;}
	.st46{fill:none;stroke:#472E19;stroke-width:5.1574;stroke-miterlimit:10;}
	.st47{fill:#FFE7B0;}
	.st48{fill:#F7AD66;}
	.st49{fill:#FFBE80;}
	.st50{fill:#5E3D21;}
	.st51{fill:#664224;}
	.st52{fill:#694425;}
	.st53{fill:#7A502C;}
	.st54{fill:#7A522B;}
	.st55{fill:#52514D;}
	.st56{fill:#3D3C3A;}
	.st57{fill:#FFE0C2;}
	.st58{fill:#EBA663;}
	.st59{fill:#FFD500;}
	.st60{fill:#DECCA0;}
	.st61{fill:#D1D0D9;}
	.st62{fill:#45454F;}
	.st63{fill:#383842;}
	.st64{fill:#47474F;}
	.st65{fill:#54545E;}
	.st66{fill:#5D5D69;}
	.st67{fill:#27272B;}
	.st68{clip-path:url(#SVGID_2_);}
	.st69{fill:#4A4A54;}
	.st70{fill:#1F1D1D;}
	.st71{fill:#ABAAB3;}
	.st72{fill:#36363D;}
	.st73{fill:none;stroke:#EDECF7;stroke-width:2.2394;stroke-linecap:round;stroke-miterlimit:10;}
	.st74{fill:none;stroke:#D9D9E3;stroke-width:2.2394;stroke-linecap:round;stroke-miterlimit:10;}
	.st75{fill:none;stroke:#FFFFFF;stroke-width:2.2394;stroke-linecap:round;stroke-miterlimit:10;}
	.st76{fill:#2D2D33;}
	.st77{fill:#FF817D;}
	.st78{fill:#FFDD73;}
	.st79{fill:#FFD169;}
	.st80{fill:#FFDC8C;}
	.st81{fill:#C4A564;}
	.st82{clip-path:url(#SVGID_4_);fill:#856951;}
	.st83{clip-path:url(#SVGID_4_);}
	.st84{fill:#FFC680;}
	.st85{fill:#AD8969;}
	.st86{fill:#C9A07A;}
	.st87{fill:#E8DCCC;}
	.st88{fill:#FFD0A3;}
	.st89{fill:#44AAD6;}
	.st90{clip-path:url(#SVGID_4_);fill:#FFD0A3;}
	.st91{fill:#F2E8DA;}
	.st92{fill:#FCF2E3;}
	.st93{fill:#56F069;}
	.st94{fill:#C4D1E8;}
	.st95{fill:#D1DAF0;}
	.st96{fill:#E6EDFA;}
	.st97{fill:#D1DAEB;}
	.st98{fill:#BFC7D6;}
	.st99{fill:#949AA8;}
	.st100{fill:#F2BA00;}
	.st101{fill:#FFEA00;}
	.st102{clip-path:url(#SVGID_6_);}
	.st103{fill:#FFF9E0;}
	.st104{clip-path:url(#SVGID_8_);}
	.st105{fill:#6D7178;}
	.st106{fill:#D3DFF5;}
	.st107{fill:#C7D4EB;}
	.st108{fill:#B1C3E3;}
	.st109{fill:#EDF4FF;}
	.st110{fill:#D0DBED;}
	.st111{fill:#EB3462;}
	.st112{fill:#D11948;}
	.st113{fill:#FF5983;}
	.st114{fill:#C7CFDE;}
	.st115{fill:#7A7F87;}
	.st116{fill:#2D804F;}
	.st117{fill:#3E9160;}
	.st118{fill:#3DA667;}
	.st119{fill:#42A66A;}
	.st120{fill:#5DBA82;}
	.st121{fill:#B1DEC3;}
	.st122{fill:#5FBD83;}
	.st123{fill:#69D192;}
	.st124{fill:#B83A43;}
	.st125{opacity:0.5;fill:url(#SVGID_9_);}
	.st126{fill:#FF525C;}
	.st127{fill:#4ABF79;}
	.st128{fill:#FF8A90;}
	.st129{fill:#781A22;}
	.st130{fill:#FFE6E7;}
	.st131{fill:#A1F7C3;}
	.st132{fill:#4A9668;}
	.st133{fill:#53A674;}
	.st134{fill:#FFA500;}
	.st135{fill:#FFF23D;}
	.st136{fill:none;stroke:#000000;stroke-width:0.4016;stroke-linecap:round;stroke-linejoin:round;}
	.st137{fill:#3BA668;}
	.st138{fill:#3F9261;}
	.st139{fill:#237A46;}
	.st140{fill:#109949;}
	.st141{fill:#43BD76;}
	.st142{fill:#ADEDC9;}
	.st143{fill:#76BF8E;}
	.st144{opacity:0.5;fill:url(#SVGID_10_);}
	.st145{fill:#DB4C16;}
	.st146{fill:#515151;}
	.st147{opacity:0.16;}
	.st148{fill:#FF8229;}
	.st149{fill:#B6B7B7;}
	.st150{fill:#E4ECF5;}
	.st151{fill:#F0F5FA;}
	.st152{opacity:0.12;fill:#1D1C1A;}
	.st153{clip-path:url(#SVGID_12_);}
	.st154{opacity:0.5;fill:url(#SVGID_13_);}
	.st155{fill:#DAE5ED;}
	.st156{fill:#C7D1D9;}
	.st157{fill:#36965D;}
	.st158{fill:#318754;}
	.st159{fill:#26874D;}
	.st160{fill:#C8D6E0;}
	.st161{fill:#53B57B;}
	.st162{fill:none;stroke:#E6E6E6;stroke-width:2.5058;stroke-miterlimit:10;}
	.st163{fill:#FF3D49;}
	.st164{fill:#33784F;}
	.st165{fill:#2B6643;}
	.st166{fill:#FFC400;}
	.st167{fill:#172B1F;}
	.st168{fill:#304A3A;}
	.st169{fill:#278A4F;}
	.st170{fill:#44BA74;}
	.st171{fill:#3EA869;}
	.st172{fill:#D68B00;}
	.st173{fill:#25854C;}
	.st174{fill:#DE1F2B;}
	.st175{opacity:0.3;}
	.st176{fill:#4AAD7E;}
	.st177{fill:#EBEBEB;}
	.st178{fill:#FF7400;}
	.st179{fill:#E0E0E0;}
	.st180{fill:#F7A351;}
	.st181{fill:#FF8219;}
	.st182{clip-path:url(#SVGID_15_);fill:#FFA01C;}
	.st183{fill:#5E5A5A;}
	.st184{fill:#454142;}
	.st185{fill:#787273;}
	.st186{fill:#615B5D;}
	.st187{fill:none;stroke:#B5B5B5;stroke-width:2.7774;stroke-linecap:round;stroke-miterlimit:10;}
	.st188{fill:#FFDAB8;}
	.st189{fill:#FFAF26;}
	.st190{fill:#CF6A16;}
	.st191{fill:#77767D;}
	.st192{fill:#FF912B;}
	.st193{fill:#FFA60D;}
	.st194{fill:#D4D4D4;}
	.st195{fill:#C4CBCF;}
	.st196{fill:#E8E8E8;}
	.st197{fill:#FAFAFA;}
	.st198{fill:#BFBFBF;}
	.st199{fill:#C4C4C4;}
	.st200{fill:#ABB1B5;}
	.st201{fill:#FFA01C;}
	.st202{fill:#242325;}
	.st203{clip-path:url(#SVGID_17_);fill:#FFA01C;}
	.st204{fill:none;stroke:#B5B5B5;stroke-width:1.5961;stroke-linecap:round;stroke-miterlimit:10;}
	.st205{fill:#FFFFFF;stroke:#FFFFFF;stroke-width:0.3;stroke-miterlimit:10;}
	.st206{fill:none;stroke:#E6E6E6;stroke-width:1.5831;stroke-miterlimit:10;}
	.st207{clip-path:url(#SVGID_19_);}
	.st208{opacity:0.5;fill:url(#SVGID_20_);}
	.st209{fill:#E4E9EC;}
	.st210{clip-path:url(#SVGID_22_);fill:#856951;}
	.st211{clip-path:url(#SVGID_22_);}
	.st212{clip-path:url(#SVGID_22_);fill:#FFD0A3;}
	.st213{clip-path:url(#SVGID_24_);}
	.st214{fill:none;stroke:#EDECF7;stroke-width:1.8723;stroke-linecap:round;stroke-miterlimit:10;}
	.st215{fill:none;stroke:#D9D9E3;stroke-width:1.8723;stroke-linecap:round;stroke-miterlimit:10;}
	.st216{fill:none;stroke:#FFFFFF;stroke-width:1.8723;stroke-linecap:round;stroke-miterlimit:10;}
	.st217{fill:#7A5431;}
	.st218{fill:#9C6B3E;}
	.st219{fill:#D2E8F4;}
	.st220{fill:#C5DEED;}
	.st221{fill:none;stroke:#F3FAFF;stroke-width:4;stroke-miterlimit:10;}
	.st222{fill:#DEECF4;}
	.st223{fill:#F3FAFF;}
	.st224{fill:#FF0000;}
	.st225{fill:#51996D;}
	.st226{fill:#E9F0F4;}
	.st227{fill:#9264B3;}
	.st228{display:none;}
	.st229{fill:#D9B4B4;}
	.st230{fill:#D90000;}
	.st231{fill:#C70000;}
	.st232{fill:#ED0000;}
	.st233{fill:#8F8F8F;}
	.st234{fill:#F0F2D5;}
	.st235{fill:#E5E8BA;}
	.st236{fill:#5E5E5E;}
	.st237{fill:#474747;}
	.st238{fill:#545454;}
	.st239{fill:#6E6E6E;}
	.st240{opacity:0.3;fill:url(#SVGID_25_);}
	.st241{opacity:0.3;fill:url(#SVGID_26_);}
	.st242{opacity:0.3;fill:url(#SVGID_27_);}
	.st243{opacity:0.11;fill:#FFFFFF;}
	.st244{opacity:0.3;fill:url(#SVGID_28_);}
	.st245{opacity:0.3;fill:url(#SVGID_29_);}
	.st246{opacity:0.3;fill:url(#SVGID_30_);}
	.st247{fill:none;stroke:#F3FAFF;stroke-width:3.1547;stroke-miterlimit:10;}
	.st248{fill:#D18C45;}
	.st249{fill:#E4E8A9;}
	.st250{fill:#2B2B2B;}
	.st251{fill:#3B3B3B;}
	.st252{fill:#3F3F3F;}
	.st253{fill:#525252;}
</style>
<g id="Layer_1">
</g>
<g id="GUIDES">
	<rect x="0.1" class="st0" width="511.9" height="367.1"/>
	<g>
		<rect x="0" class="st250" width="108.6" height="49.8"/>
		<rect x="130.1" class="st250" width="230.3" height="49.8"/>
		<rect x="381.9" class="st250" width="130.1" height="49.8"/>
		<g>
			<g>
				<polygon class="st237" points="108.6,31.2 108.6,355.1 0,355.1 0,328.2 81.8,328.2 81.8,58.1 				"/>
				<polygon class="st251" points="108.6,31.2 81.8,58.1 0,58.1 0,31.2 				"/>
				<rect x="0" y="58.1" class="st252" width="81.8" height="270.2"/>
				<rect x="0" y="58.1" class="st253" width="81.8" height="3.7"/>
			</g>
			<g>
				<polygon class="st237" points="360.4,31.2 360.4,355.1 130.1,355.1 130.1,31.2 156.9,58.1 156.9,328.2 333.6,328.2 333.6,58.1 
									"/>
				<polygon class="st251" points="360.4,31.2 333.6,58.1 156.9,58.1 130.1,31.2 				"/>
				<rect x="156.9" y="58.1" class="st252" width="176.7" height="270.2"/>
				<rect x="156.9" y="58.1" class="st253" width="176.7" height="3.7"/>
			</g>
			<g>
				<polygon class="st237" points="512,328.2 512,355.1 381.9,355.1 381.9,31.2 400.4,49.8 408.7,58.1 408.7,328.2 				"/>
				<polygon class="st251" points="512,31.2 512,58.1 408.7,58.1 400.4,49.8 381.9,31.2 				"/>
				<rect x="408.7" y="58.1" class="st252" width="103.3" height="270.2"/>
				<rect x="408.7" y="58.1" class="st253" width="103.3" height="3.7"/>
			</g>
		</g>
	</g>
	<g>
		<rect x="-0.1" y="345.3" class="st217" width="512.1" height="38.7"/>
		<rect x="-0.1" y="345.3" class="st218" width="512.1" height="7.4"/>
		<g>
			<path class="st219" d="M442.7,320.8l-0.1,12.3l0,9.1c-0.4,0-0.7,0-1.1,0c-17.2-0.4-33.9-1.1-49.9-1.9h-0.1
				c-65-3.4-116.7-8.7-127.1,0.2l-8.2-2.1l-0.2-0.1c-0.8-14.3,11.1-33.8,25.3-32.7l159.2,12.8C441.8,318.5,442.7,319.6,442.7,320.8z
				"/>
			<path class="st220" d="M442.7,333.2l0,9.1c-0.4,0-0.7,0-1.1,0l-0.3,0l-1.2,0l-48.4-1.8h-0.1l-107.7-4.1c-0.8,0-16.1,5.2-16.1,5.2
				l-9.7-0.3c-1.4,0-2.4-1.5-1.8-2.8c0,0,0,0,0,0c0,0,0,0,0,0s8.2-11,35.8-11L442.7,333.2z"/>
			<g>
				<path class="st219" d="M256,338.4l-0.6,0.1l-11.5,1c0,0-15-3.4-15.8-3.4c-0.7,0-137.3,5.4-156.5,6.2l-1.2,0c-0.2,0-0.4,0-0.5,0
					l-0.5,0l-0.5-9.1l-1-19.6c-0.1-1.6,1.1-2.9,2.7-3l150.8-12.1C240,296.9,256,319.6,256,338.4z"/>
				<g>
					<path class="st247" d="M256,338.4l0.3-6c0.9-16.3,14.6-29,30.9-28.7l153.5,5.9"/>
				</g>
				<g>
					<path class="st222" d="M255.4,338.4l-11.5,1c0,0-15-3.4-15.8-3.4s-158.7,6.2-158.7,6.2l-0.5-9.1l159.8-5.6
						C244.4,327.2,253,333.3,255.4,338.4z"/>
					<path class="st220" d="M253.5,341.2l-9.7,0.3c0,0-15.4-5.2-16.1-5.2l-156.1,6l-1.2,0l-0.5,0l-0.5,0l-0.5-9.1l150.7-5.7
						c27.6,0,35.8,11,35.8,11c0,0,0,0,0,0C255.9,339.8,255,341.2,253.5,341.2z"/>
					<path class="st223" d="M256,338.4l-0.8,0.1c-3.5-15.2-17.7-34-33.9-32.7L68.2,318l-0.4-5.2c-0.1-1.2,0.8-2.2,1.9-2.3
						l151.5-12.1C240,296.9,256,319.6,256,338.4z"/>
				</g>
				<path class="st224" d="M230.5,333.6l-166.7,7.8c-1.9,0.1-3.1,1.4-3.1,3l0,0c0,0.5,0.4,0.9,0.9,0.8l167.3-6.8
					c0.7,0,1.5,0.1,2.1,0.5c8.3,4.2,16.7,6.3,25,6.3c8.3,0,16.7-2.1,25-6.3c0.7-0.3,1.4-0.5,2.1-0.5l167.3,6.8
					c0.5,0,0.9-0.4,0.9-0.8l0,0c0-1.6-1.2-2.9-2.8-2.9l-166.7-7.8c-0.6,0-1.1,0.1-1.7,0.3c-16.1,6-32.1,6-48.2,0
					C231.3,333.7,230.8,333.6,230.5,333.6z"/>
			</g>
			<g>
				<g>
					<path class="st12" d="M387.3,289.9c-3.2,0.7-4.3,1.7-5,5c-0.1,0.5-0.8,0.5-0.9,0c-0.7-3.2-1.7-4.3-5-5c-0.5-0.1-0.5-0.8,0-0.9
						c3.2-0.7,4.3-1.7,5-5c0.1-0.5,0.8-0.5,0.9,0c0.7,3.2,1.7,4.3,5,5C387.8,289.1,387.8,289.8,387.3,289.9z"/>
				</g>
			</g>
		</g>
		<path class="st225" d="M40.1,299.7v39.3c0,3.4-2.8,6.2-6.2,6.2H0.1v-51.8h33.8c1.6,0,3.1,0.6,4.2,1.6
			C39.3,296.3,40.1,297.9,40.1,299.7z"/>
		<path class="st226" d="M34,339.1c0,1-0.8,1.8-1.8,1.8H0.1V298h32.2c1,0,1.8,0.8,1.8,1.8c-0.3,1.1-0.5,2.2-0.7,3.4
			C30.8,315.4,30.9,327.4,34,339.1z"/>
		<path class="st219" d="M34,299.7c-0.3,1.1-0.5,2.2-0.7,3.4H0.1V298h32.2C33.3,298,34,298.7,34,299.7z"/>
		<g>
			<path class="st227" d="M29.7,293.5H0.1v-25.6h29.6c2.2,0,4.1,1.8,4.1,4.1v17.5C33.8,291.7,32,293.5,29.7,293.5z"/>
			<path class="st226" d="M28.5,280.3c-0.1,2.8,0.4,5.6,1.4,8.3c0,1-0.8,1.8-1.8,1.8H0.1v-19.6h28.1c1,0,1.8,0.8,1.8,1.8
				c-0.2,0.6-0.4,1.2-0.6,1.8C28.8,276.5,28.6,278.4,28.5,280.3z"/>
		</g>
		<path class="st12" d="M30,288.6c0,1-0.8,1.8-1.8,1.8H0.1v-10.2h28.5C28.5,283.1,29,285.8,30,288.6z"/>
	</g>
	<g>
		<path class="st12" d="M139.6,288.8c-4.3,0.9-5.7,2.3-6.6,6.6c-0.1,0.7-1.1,0.7-1.2,0c-0.9-4.3-2.3-5.7-6.6-6.6
			c-0.7-0.1-0.7-1.1,0-1.2c4.3-0.9,5.7-2.3,6.6-6.6c0.1-0.7,1.1-0.7,1.2,0c0.9,4.3,2.3,5.7,6.6,6.6
			C140.3,287.7,140.3,288.7,139.6,288.8z"/>
		<circle class="st12" cx="124.1" cy="272.7" r="1.8"/>
	</g>
</g>
</svg>
