<?xml version="1.0" encoding="utf-8"?>
<!-- Generator: Adobe Illustrator 22.0.1, SVG Export Plug-In . SVG Version: 6.00 Build 0)  -->
<svg version="1.1"
	 id="svg2" xmlns:cc="http://creativecommons.org/ns#" xmlns:dc="http://purl.org/dc/elements/1.1/" xmlns:rdf="http://www.w3.org/1999/02/22-rdf-syntax-ns#" xmlns:svg="http://www.w3.org/2000/svg"
	 xmlns="http://www.w3.org/2000/svg" xmlns:xlink="http://www.w3.org/1999/xlink" x="0px" y="0px" viewBox="0 0 45 45"
	 style="enable-background:new 0 0 45 45;" xml:space="preserve">
<style type="text/css">
	.st0{fill:#C9F0FF;}
	.st1{fill:#45A5FF;}
	.st2{fill:#61BDFF;}
	.st3{fill:#3E6AA3;}
</style>
<g>
	<path class="st0" d="M24.7,20.6c1.5,1.1,3.5,1.3,5.2,0.3c2.3-1.3,3.2-4.2,1.9-6.5l-0.1-0.2l-7.7,4.3L24.7,20.6z"/>
	<g>
		<path class="st0" d="M14.1,20.9L14.1,20.9c2.3,1.3,5.3,0.4,6.5-1.9l0.1-0.2l-8.4-4.6l-0.1,0.2C10.9,16.7,11.8,19.6,14.1,20.9z"/>
		<g>
			<g>
				<g>
					
						<rect x="7.1" y="22.1" transform="matrix(0.7782 -0.6281 0.6281 0.7782 -10.978 14.1214)" class="st1" width="14.8" height="1"/>
				</g>
			</g>
			<path class="st1" d="M9.5,29.8L9.5,29.8l0-3.2h0c-0.9,0-1.5,0.7-1.5,1.5v0.1C8,29.2,8.7,29.8,9.5,29.8z"/>
		</g>
		<path class="st1" d="M18.3,1.8L18.3,1.8c1.8,0,3.3,1.5,3.3,3.3v5.3h-3.3V1.8z"/>
		<path class="st2" d="M22.1,15.1L22.1,15.1c-2.4,0-4.3-1.9-4.3-4.3v0c0-2.4,1.9-4.3,4.3-4.3h0c2.4,0,4.3,1.9,4.3,4.3v0
			C26.4,13.2,24.5,15.1,22.1,15.1z"/>
		<path class="st2" d="M26.4,1.8L26.4,1.8c-1.8,0-3.3,1.5-3.3,3.3v5.3h3.3V1.8z"/>
		<g>
			
				<rect x="19.8" y="25.8" transform="matrix(-1 -4.230584e-11 4.230584e-11 -1 40.4878 63.593)" class="st1" width="0.9" height="12"/>
			<path class="st1" d="M21.6,43.2L21.6,43.2l0-3.8c0-1-0.8-1.8-1.8-1.8h0v3.8C19.8,42.3,20.6,43.2,21.6,43.2z"/>
		</g>
		<g>
			
				<rect x="23.4" y="25.8" transform="matrix(-1 -4.230584e-11 4.230584e-11 -1 47.6531 63.593)" class="st2" width="0.9" height="12"/>
			<path class="st2" d="M25.2,43.2L25.2,43.2l0-3.8c0-1-0.8-1.8-1.8-1.8h0v3.8C23.4,42.3,24.2,43.2,25.2,43.2z"/>
		</g>
		<path class="st2" d="M22.1,29.3L22.1,29.3c-2,0-3.6-1.6-3.6-3.6v-5.8c0-2,1.6-3.6,3.6-3.6h0c2,0,3.6,1.6,3.6,3.6v5.8
			C25.7,27.7,24.1,29.3,22.1,29.3z"/>
		<g>
			<path class="st2" d="M28.3,34.7L28.3,34.7l0-3.2h0c0.9,0,1.5,0.7,1.5,1.5v0.1C29.8,34,29.1,34.7,28.3,34.7z"/>
		</g>
		<path class="st3" d="M19.4,11.4L19.4,11.4c-0.4,0-0.6-0.3-0.6-0.6V9.7c0-0.4,0.3-0.6,0.6-0.6h0c0.4,0,0.6,0.3,0.6,0.6v1.1
			C20.1,11.1,19.8,11.4,19.4,11.4z"/>
		<path class="st3" d="M22.9,11.4L22.9,11.4c-0.4,0-0.6-0.3-0.6-0.6V9.7c0-0.4,0.3-0.6,0.6-0.6l0,0c0.4,0,0.6,0.3,0.6,0.6v1.1
			C23.6,11.1,23.3,11.4,22.9,11.4z"/>
	</g>
	<path class="st3" d="M21.9,12.9h-1.6v-0.1c0-0.4,0.4-0.8,0.8-0.8h0C21.5,12,21.9,12.4,21.9,12.9L21.9,12.9z"/>
	<g>
		<rect x="25.8" y="17.5" transform="matrix(0.937 -0.3492 0.3492 0.937 -7.0337 10.7491)" class="st2" width="1" height="14.8"/>
	</g>
</g>
</svg>
