<?xml version="1.0" encoding="utf-8"?>
<!-- Generator: Adobe Illustrator 21.1.0, SVG Export Plug-In . SVG Version: 6.00 Build 0)  -->
<svg version="1.1" xmlns="http://www.w3.org/2000/svg" xmlns:xlink="http://www.w3.org/1999/xlink" x="0px" y="0px"
	 viewBox="0 0 240.1 135.6" style="enable-background:new 0 0 240.1 135.6;" xml:space="preserve">
<style type="text/css">
	.st0{fill:#363636;}
	.st1{fill:#424242;}
	.st2{fill:#F0F0F0;}
	.st3{fill:#D45115;}
	.st4{fill:#D3D7E0;}
	.st5{fill:#E5E9F6;}
	.st6{fill:#F7C2C8;}
	.st7{fill:#F76128;}
	.st8{opacity:0.12;}
	.st9{fill:#B6B8C3;}
	.st10{fill:#E4EBF8;}
	.st11{fill:#C5CCD9;}
	.st12{fill:#FFFFFF;}
	.st13{fill:#E4E4F3;}
	.st14{fill:#FFB66F;}
	.st15{fill:#57473E;}
	.st16{fill:#515451;}
	.st17{fill:#626662;}
	.st18{fill:#5D5C58;}
	.st19{fill:#6B6A65;}
	.st20{fill:#FFCE9E;}
	.st21{fill:#B36E2D;}
	.st22{fill:#FF6139;}
	.st23{fill:#CECDCC;}
	.st24{fill:#E8E6E3;}
	.st25{fill:none;}
	.st26{fill:#FF9F05;}
	.st27{fill:#F09605;}
	.st28{fill:none;stroke:#FFB570;stroke-width:8.8858;stroke-linecap:round;stroke-miterlimit:10;}
	.st29{fill:#DFE7EB;}
	.st30{fill:#C1CCD4;}
	.st31{fill:none;stroke:#E4E9EC;stroke-width:2.2055;stroke-linecap:round;stroke-miterlimit:10;}
	.st32{fill:#565773;}
	.st33{fill:#242530;}
	.st34{fill:#3B3D52;}
	.st35{fill:#FF8914;}
	.st36{fill:#EFF4F7;}
	.st37{fill:#FF120C;}
	.st38{fill:#F5FBFF;}
	.st39{fill:#5E5959;}
	.st40{fill:#696363;}
	.st41{fill:#97989E;}
	.st42{fill:#B2B3BA;}
	.st43{opacity:0.2;}
	.st44{fill:#472E19;}
	.st45{fill:none;stroke:#472E19;stroke-width:3.0944;stroke-miterlimit:10;}
	.st46{fill:none;stroke:#472E19;stroke-width:5.1574;stroke-miterlimit:10;}
	.st47{fill:#FFE7B0;}
	.st48{fill:#F7AD66;}
	.st49{fill:#FFBE80;}
	.st50{fill:#5E3D21;}
	.st51{fill:#664224;}
	.st52{fill:#694425;}
	.st53{fill:#7A502C;}
	.st54{fill:#7A522B;}
	.st55{fill:#52514D;}
	.st56{fill:#3D3C3A;}
	.st57{fill:#FFE0C2;}
	.st58{fill:#EBA663;}
	.st59{fill:#FFD500;}
	.st60{fill:#DECCA0;}
	.st61{fill:#D1D0D9;}
	.st62{fill:#45454F;}
	.st63{fill:#383842;}
	.st64{fill:#47474F;}
	.st65{fill:#54545E;}
	.st66{fill:#5D5D69;}
	.st67{fill:#27272B;}
	.st68{clip-path:url(#SVGID_2_);}
	.st69{fill:#4A4A54;}
	.st70{fill:#1F1D1D;}
	.st71{fill:#ABAAB3;}
	.st72{fill:#36363D;}
	.st73{fill:none;stroke:#EDECF7;stroke-width:2.2394;stroke-linecap:round;stroke-miterlimit:10;}
	.st74{fill:none;stroke:#D9D9E3;stroke-width:2.2394;stroke-linecap:round;stroke-miterlimit:10;}
	.st75{fill:none;stroke:#FFFFFF;stroke-width:2.2394;stroke-linecap:round;stroke-miterlimit:10;}
	.st76{fill:#2D2D33;}
	.st77{fill:#FF817D;}
	.st78{fill:#FFDD73;}
	.st79{fill:#FFD169;}
	.st80{fill:#FFDC8C;}
	.st81{fill:#C4A564;}
	.st82{clip-path:url(#SVGID_4_);fill:#856951;}
	.st83{clip-path:url(#SVGID_4_);}
	.st84{fill:#FFC680;}
	.st85{fill:#AD8969;}
	.st86{fill:#C9A07A;}
	.st87{fill:#E8DCCC;}
	.st88{fill:#FFD0A3;}
	.st89{fill:#44AAD6;}
	.st90{clip-path:url(#SVGID_4_);fill:#FFD0A3;}
	.st91{fill:#F2E8DA;}
	.st92{fill:#FCF2E3;}
	.st93{fill:#56F069;}
	.st94{fill:#C4D1E8;}
	.st95{fill:#D1DAF0;}
	.st96{fill:#E6EDFA;}
	.st97{fill:#D1DAEB;}
	.st98{fill:#BFC7D6;}
	.st99{fill:#949AA8;}
	.st100{fill:#F2BA00;}
	.st101{fill:#FFEA00;}
	.st102{clip-path:url(#SVGID_6_);}
	.st103{fill:#FFF9E0;}
	.st104{clip-path:url(#SVGID_8_);}
	.st105{fill:#6D7178;}
	.st106{fill:#D3DFF5;}
	.st107{fill:#C7D4EB;}
	.st108{fill:#B1C3E3;}
	.st109{fill:#EDF4FF;}
	.st110{fill:#D0DBED;}
	.st111{fill:#EB3462;}
	.st112{fill:#D11948;}
	.st113{fill:#FF5983;}
	.st114{fill:#C7CFDE;}
	.st115{fill:#7A7F87;}
	.st116{fill:#2D804F;}
	.st117{fill:#3E9160;}
	.st118{fill:#3DA667;}
	.st119{fill:#42A66A;}
	.st120{fill:#5DBA82;}
	.st121{fill:#B1DEC3;}
	.st122{fill:#5FBD83;}
	.st123{fill:#69D192;}
	.st124{fill:#B83A43;}
	.st125{opacity:0.5;fill:url(#SVGID_9_);}
	.st126{fill:#FF525C;}
	.st127{fill:#4ABF79;}
	.st128{fill:#FF8A90;}
	.st129{fill:#781A22;}
	.st130{fill:#FFE6E7;}
	.st131{fill:#A1F7C3;}
	.st132{fill:#4A9668;}
	.st133{fill:#53A674;}
	.st134{fill:#FFA500;}
	.st135{fill:#FFF23D;}
	.st136{fill:none;stroke:#000000;stroke-width:0.4016;stroke-linecap:round;stroke-linejoin:round;}
	.st137{fill:#3BA668;}
	.st138{fill:#3F9261;}
	.st139{fill:#237A46;}
	.st140{fill:#109949;}
	.st141{fill:#43BD76;}
	.st142{fill:#ADEDC9;}
	.st143{fill:#76BF8E;}
	.st144{opacity:0.5;fill:url(#SVGID_10_);}
	.st145{fill:#DB4C16;}
	.st146{fill:#515151;}
	.st147{opacity:0.16;}
	.st148{fill:#FF8229;}
	.st149{fill:#B6B7B7;}
	.st150{fill:#E4ECF5;}
	.st151{fill:#F0F5FA;}
	.st152{opacity:0.12;fill:#1D1C1A;}
	.st153{clip-path:url(#SVGID_12_);}
	.st154{opacity:0.5;fill:url(#SVGID_13_);}
	.st155{fill:#DAE5ED;}
	.st156{fill:#C7D1D9;}
	.st157{fill:#36965D;}
	.st158{fill:#318754;}
	.st159{fill:#26874D;}
	.st160{fill:#C8D6E0;}
	.st161{fill:#53B57B;}
	.st162{fill:none;stroke:#E6E6E6;stroke-width:2.5058;stroke-miterlimit:10;}
	.st163{fill:#FF3D49;}
	.st164{fill:#33784F;}
	.st165{fill:#2B6643;}
	.st166{fill:#FFC400;}
	.st167{fill:#172B1F;}
	.st168{fill:#304A3A;}
	.st169{fill:#278A4F;}
	.st170{fill:#44BA74;}
	.st171{fill:#3EA869;}
	.st172{fill:#D68B00;}
	.st173{fill:#25854C;}
	.st174{fill:#DE1F2B;}
	.st175{opacity:0.3;}
	.st176{fill:#4AAD7E;}
	.st177{fill:#EBEBEB;}
	.st178{fill:#FF7400;}
	.st179{fill:#E0E0E0;}
	.st180{fill:#F7A351;}
	.st181{fill:#FF8219;}
	.st182{clip-path:url(#SVGID_15_);fill:#FFA01C;}
	.st183{fill:#5E5A5A;}
	.st184{fill:#454142;}
	.st185{fill:#787273;}
	.st186{fill:#615B5D;}
	.st187{fill:none;stroke:#B5B5B5;stroke-width:2.7774;stroke-linecap:round;stroke-miterlimit:10;}
	.st188{fill:#FFDAB8;}
	.st189{fill:#FFAF26;}
	.st190{fill:#CF6A16;}
	.st191{fill:#77767D;}
	.st192{fill:#FF912B;}
	.st193{fill:#FFA60D;}
	.st194{fill:#D4D4D4;}
	.st195{fill:#C4CBCF;}
	.st196{fill:#E8E8E8;}
	.st197{fill:#FAFAFA;}
	.st198{fill:#BFBFBF;}
	.st199{fill:#C4C4C4;}
	.st200{fill:#ABB1B5;}
	.st201{fill:#FFA01C;}
	.st202{fill:#242325;}
	.st203{clip-path:url(#SVGID_17_);fill:#FFA01C;}
	.st204{fill:none;stroke:#B5B5B5;stroke-width:1.5961;stroke-linecap:round;stroke-miterlimit:10;}
	.st205{fill:#FFFFFF;stroke:#FFFFFF;stroke-width:0.3;stroke-miterlimit:10;}
	.st206{fill:none;stroke:#E6E6E6;stroke-width:1.5831;stroke-miterlimit:10;}
	.st207{clip-path:url(#SVGID_19_);}
	.st208{opacity:0.5;fill:url(#SVGID_20_);}
	.st209{fill:#E4E9EC;}
	.st210{clip-path:url(#SVGID_22_);fill:#856951;}
	.st211{clip-path:url(#SVGID_22_);}
	.st212{clip-path:url(#SVGID_22_);fill:#FFD0A3;}
	.st213{clip-path:url(#SVGID_24_);}
	.st214{fill:none;stroke:#EDECF7;stroke-width:1.8723;stroke-linecap:round;stroke-miterlimit:10;}
	.st215{fill:none;stroke:#D9D9E3;stroke-width:1.8723;stroke-linecap:round;stroke-miterlimit:10;}
	.st216{fill:none;stroke:#FFFFFF;stroke-width:1.8723;stroke-linecap:round;stroke-miterlimit:10;}
	.st217{fill:#7A5431;}
	.st218{fill:#9C6B3E;}
	.st219{fill:#D2E8F4;}
	.st220{fill:#C5DEED;}
	.st221{fill:none;stroke:#F3FAFF;stroke-width:4;stroke-miterlimit:10;}
	.st222{fill:#DEECF4;}
	.st223{fill:#F3FAFF;}
	.st224{fill:#FF0000;}
	.st225{fill:#51996D;}
	.st226{fill:#E9F0F4;}
	.st227{fill:#9264B3;}
	.st228{display:none;}
	.st229{fill:#D9B4B4;}
	.st230{fill:#D90000;}
	.st231{fill:#C70000;}
	.st232{fill:#ED0000;}
	.st233{fill:#8F8F8F;}
	.st234{fill:#F0F2D5;}
	.st235{fill:#E5E8BA;}
	.st236{fill:#5E5E5E;}
	.st237{fill:#474747;}
	.st238{fill:#545454;}
	.st239{fill:#6E6E6E;}
	.st240{opacity:0.3;fill:url(#SVGID_25_);}
	.st241{opacity:0.3;fill:url(#SVGID_26_);}
	.st242{opacity:0.3;fill:url(#SVGID_27_);}
	.st243{opacity:0.11;fill:#FFFFFF;}
	.st244{opacity:0.3;fill:url(#SVGID_28_);}
	.st245{opacity:0.3;fill:url(#SVGID_29_);}
	.st246{opacity:0.3;fill:url(#SVGID_30_);}
	.st247{fill:none;stroke:#F3FAFF;stroke-width:3.1547;stroke-miterlimit:10;}
	.st248{fill:#D18C45;}
	.st249{fill:#E4E8A9;}
	.st250{fill:#2B2B2B;}
	.st251{fill:#3B3B3B;}
	.st252{fill:#3F3F3F;}
	.st253{fill:#525252;}
</style>
<g id="Layer_1">
</g>
<g id="GUIDES">
	<g>
		<path class="st233" d="M196.2,71.3c3.1-2.7,6.1-5.6,9-8.6c2.8-3,5.6-6.1,8.1-9.4c2.5-3.2,4.9-6.6,7-10.1c1.8-3,3.3-6.1,4.6-9.3
			c0.4-0.9,1.4-1.3,2.3-1h0c1,0.4,1.4,1.5,1,2.4c-1.6,3.3-3.4,6.4-5.4,9.4c-2.4,3.5-5,6.8-7.8,9.9c-2.8,3.1-5.7,6.1-8.8,8.9
			c-3.1,2.8-6.2,5.5-9.6,8.1L196.2,71.3z"/>
		<g>
			<path class="st234" d="M203.3,65.4c-0.3-0.4-0.8-0.7-1.3-0.8c-0.6-0.1-1.2,0-1.7,0.3c-2.5,1.6-5.1,3-7.8,4.3
				c-0.6,0.1-1.3,0.1-1.9,0c-1.2-0.1-2.3-0.5-3.4-1.1c-0.3-0.1-0.5-0.3-0.7-0.5c-0.2-0.2-0.5-0.4-0.7-0.6c-0.2-0.2-0.4-0.4-0.6-0.7
				l-0.5-0.8c-0.2-0.2-0.3-0.5-0.4-0.8l-0.4-0.8c-0.2-0.6-0.4-1.2-0.6-1.8l-0.2,0c0.2,0.6,0.3,1.2,0.5,1.8l0.3,0.9
				c0.1,0.3,0.2,0.6,0.4,0.9l0.5,0.8c0.2,0.3,0.4,0.5,0.6,0.8c0.2,0.3,0.4,0.5,0.7,0.7c0.2,0.2,0.5,0.5,0.7,0.6
				c1,0.8,2.3,1.2,3.6,1.4c-1.1,0.1-2.1,0.2-3.2,0.2c-3.1,0-6.2-0.6-9.1-1.7c-1.4-0.6-2.9-1.3-4.2-2.1c-1.3-0.9-2.6-1.8-3.8-2.8
				c-2.4-2.1-4.6-4.5-6.5-7.1l-0.5,0.4c1.8,2.7,3.8,5.3,6.2,7.5c1.2,1.2,2.5,2.2,3.8,3.1c1.4,0.9,2.8,1.8,4.3,2.5
				c2.5,1.1,5.1,1.9,7.9,2.2c-0.7,0.3-1.4,0.5-2.1,0.8c0,0-0.1,0-0.1,0c-2.1,0.3-4.2,0.5-6.3,0.7c-4.2,0.3-8.5,0.3-12.7-0.1
				c-4.2-0.4-8.5-1-12.6-2c-2.1-0.4-4.1-1.1-6.2-1.7c-1-0.3-2-0.7-3-1l-3-1.1l-0.4,0.8l3,1.2c1,0.4,2,0.8,3,1.2
				c2.1,0.7,4.1,1.4,6.2,1.9c4.2,1.2,8.5,1.9,12.8,2.5c3.1,0.4,6.2,0.5,9.3,0.6c-6.4,1.5-12.9,2.5-19.3,3.1
				c-7.1-0.5-24.3-2.1-37.4-6.5c-0.6-0.2-0.9,0.6-0.4,0.9c3.1,1.8,7.5,4,12.3,5.9c-16.3-1-30.5-3.8-39.4-5.9c-6-1.4-9.6-2.5-9.6-2.5
				l6.2,34.3l3.9,21.7c1.6,0.3,3.1,0.6,4.6,0.8c27.9,4.2,50.3-3.1,67.4-13.9c0,0,0,0,0,0c24.2-15.4,37.8-38,42-45.8
				c0.1-0.2,0.2-0.4,0.2-0.7C203.9,66.6,203.7,65.9,203.3,65.4z"/>
			<path class="st235" d="M197.6,70c-59,46.6-110.3,27.7-110.3,27.7l-1.8,7.5l3.9,21.7c1.6,0.3,3.1,0.6,4.6,0.8
				c27.9,4.2,50.3-3.1,67.4-13.9c0,0,0,0,0,0c6.9-4.4,12.9-9.3,18.1-14.4l-13.7,26.9l0.3,0.2l23.6-38.2c1-1.2,2-2.4,2.9-3.6
				l-8.6,25.1l0.5,0.2l16.8-38.2c0.9-1.5,1.7-2.9,2.2-3.9c0.1-0.2,0.2-0.4,0.2-0.7c0.1-0.7-0.1-1.4-0.5-1.9
				c-0.9,0.7-1.7,1.5-2.6,2.2L197.6,70z"/>
			<path class="st12" d="M114.4,115.7l0.2-0.2c-0.8-0.9-1.6-2-2.4-3.1c-0.8-1.1-1.5-2.2-2.2-3.3c-1.4-2.3-2.8-4.6-4-7
				c-2.4-4.8-4.4-9.9-5.7-15.1c-0.7-2.6-1.2-5.3-1.5-8c-0.3-2.7-0.5-5.4-0.5-8.1c0-5.4,0.8-10.9,2.3-16.1l-0.5-0.2
				c-1.8,5.2-2.9,10.7-3.2,16.3c-0.2,2.8-0.1,5.6,0,8.3c0.2,2.8,0.6,5.6,1.1,8.3c1.1,5.5,2.8,10.9,5,16c0.7,1.5,1.4,3,2.1,4.5
				c-5.6-6.2-10.6-15.1-14.1-27.8c-0.4-1.6-0.9-3.1-1.4-4.6c-2.6-13.9-8-38.8-16.1-53c-0.3-0.4-0.9-0.1-0.7,0.4
				c1.8,4.6,4.4,12.6,6,22.2C59,4.5,32.5,6.8,32.5,6.8C32.3,7,32.2,7.1,32,7.3c-29.9,41-11,99.4,37.3,114.9c8.5,2.7,15.8,4.1,20,4.7
				c2.4,0.3,3.8,0.5,3.8,0.5c0.3,0.1,0.5,0.2,0.8,0.3c2.5,0.4,4.9,0.6,7.2,0.8c24.6,2,44.6-4.9,60.2-14.8
				C157.3,115.9,134.1,127.1,114.4,115.7z"/>
			<path class="st234" d="M32,7.3C21,22.4,16.6,39.9,17.9,56.8l-0.2-0.6l-0.9-3.8c-1.1-5.1-1.9-10.3-2.2-15.5
				c-0.3-2.6-0.3-5.2-0.3-7.9c-0.1-1.3,0-2.6,0.1-3.9l0.1-3.9L13.7,21l-0.3,4c-0.1,1.3-0.2,2.6-0.2,4c0,2.6-0.1,5.3,0,7.9
				c0.1,5.3,0.8,10.6,1.7,15.8l0.7,3.9l0.9,3.9c0.7,2.6,1.4,5.1,2.2,7.7c1.3,3.9,2.8,7.8,4.6,11.6c0.1,0.2,0.2,0.4,0.2,0.6
				l-10.5-9.2c-0.6-0.5-1.4,0.1-1.1,0.8c8.9,19.9,24.3,32.8,38.1,40.9c5.8,3.9,12.2,7.1,19.3,9.4c8.5,2.7,15.8,4.1,20,4.7
				c2.4,0.3,3.8,0.5,3.8,0.5c0.3,0.1,0.5,0.2,0.8,0.3c2.5,0.4,4.9,0.6,7.2,0.8C24.6,102.9,32,7.3,32,7.3z"/>
			<path class="st234" d="M43.1,84.7c-1.7-5.5-2.8-11-3.6-16.6c-0.8-5.6-1.1-11.2-0.8-16.8c0.2-5.6,1-11.2,2.6-16.6
				c0.8-2.7,1.8-5.3,3-7.8c1.2-2.5,2.7-4.9,4.2-7.2c-1.4,2.4-2.7,4.8-3.8,7.4c-1,2.6-1.9,5.2-2.5,7.9c-1.2,5.4-1.7,10.9-1.6,16.3
				c0.1,5.5,0.8,10.9,1.8,16.3c1.1,5.3,2.5,10.7,4.4,15.7L43.1,84.7z"/>
			<path class="st234" d="M53.7,98.6c-0.7-1.9-1.2-3.8-1.6-5.7c-0.2-1-0.3-1.9-0.5-2.9l-0.3-2.9c-0.3-3.9-0.1-7.8,0.5-11.6
				c0.3-1.9,0.9-3.8,1.4-5.7c0.7-1.8,1.3-3.7,2.2-5.4c1.6-3.5,4-6.6,6.4-9.6l0.4,0.3c-2.3,3-4.5,6.2-5.9,9.7
				c-0.9,1.7-1.3,3.5-1.9,5.3c-0.4,1.8-0.9,3.7-1.1,5.5c-0.5,3.7-0.5,7.5-0.1,11.2l0.4,2.8c0.2,0.9,0.4,1.8,0.6,2.7
				c0.4,1.8,1,3.6,1.7,5.3L53.7,98.6z"/>
		</g>
	</g>
</g>
</svg>
