<?xml version="1.0" encoding="utf-8"?>
<!-- Generator: Adobe Illustrator 22.0.1, SVG Export Plug-In . SVG Version: 6.00 Build 0)  -->
<svg version="1.1"
	 id="svg2" xmlns:cc="http://creativecommons.org/ns#" xmlns:dc="http://purl.org/dc/elements/1.1/" xmlns:rdf="http://www.w3.org/1999/02/22-rdf-syntax-ns#" xmlns:svg="http://www.w3.org/2000/svg"
	 xmlns="http://www.w3.org/2000/svg" xmlns:xlink="http://www.w3.org/1999/xlink" x="0px" y="0px" viewBox="0 0 45 45"
	 style="enable-background:new 0 0 45 45;" xml:space="preserve">
<style type="text/css">
	.st0{fill:#FF3232;}
	.st1{fill:#FFCCCC;}
</style>
<g>
	<path class="st0" d="M32.5,34.1h-20c-6.4,0-11.6-5.2-11.6-11.6v0c0-6.4,5.2-11.6,11.6-11.6h20c6.4,0,11.6,5.2,11.6,11.6v0
		C44.1,28.9,38.9,34.1,32.5,34.1z"/>
	<path class="st1" d="M15.9,18.2h-5.3c-1.1,0-2.1-0.9-2.1-2.1v0c0-1.1,0.9-2.1,2.1-2.1h5.3c1.1,0,2.1,0.9,2.1,2.1v0
		C18,17.3,17.1,18.2,15.9,18.2z"/>
	<path class="st1" d="M22.7,18.3L22.7,18.3c-1.2,0-2.1-0.9-2.1-2.1v0c0-1.2,0.9-2.1,2.1-2.1h0c1.2,0,2.1,0.9,2.1,2.1v0
		C24.8,17.3,23.8,18.3,22.7,18.3z"/>
</g>
</svg>
