<?xml version="1.0" encoding="utf-8"?>
<!-- Generator: Adobe Illustrator 19.2.1, SVG Export Plug-In . SVG Version: 6.00 Build 0)  -->
<svg version="1.1" id="Layer_1" xmlns="http://www.w3.org/2000/svg" xmlns:xlink="http://www.w3.org/1999/xlink" x="0px" y="0px"
	 viewBox="0 0 400 400" style="enable-background:new 0 0 400 400;" xml:space="preserve">
<style type="text/css">
	.st0{fill:#56C6E0;}
	.st1{fill:#45B65B;}
	.st2{opacity:0.34;fill:#45B65B;enable-background:new    ;}
	.st3{opacity:0.42;fill:#45B65B;enable-background:new    ;}
	.st4{opacity:6.000000e-02;fill:#FFFFFF;enable-background:new    ;}
	.st5{opacity:0.1;fill:#F3F3F3;enable-background:new    ;}
	.st6{opacity:0.29;fill:#F3F3F3;enable-background:new    ;}
	.st7{fill:none;stroke:#F9DE5C;stroke-width:3;stroke-linecap:round;stroke-linejoin:round;}
	.st8{fill:none;stroke:#F9DE5C;stroke-width:3;stroke-linecap:round;stroke-linejoin:round;stroke-dasharray:5.7826,13.4928;}
	.st9{fill:none;stroke:#F9DE5C;stroke-width:3;stroke-linecap:round;stroke-linejoin:round;stroke-dasharray:5.8812,13.7227;}
	.st10{fill:#EB7357;}
	.st11{fill:#FFFFFF;}
	.st12{font-family:'Bariol-Bold';}
	.st13{font-size:18.7477px;}
	.st14{fill:#213542;}
</style>
<g>
	<path class="st0" d="M319.3,261.4c-5.3,7.4-11.4,14-18.2,19.5l0,0c-3.3,2.8-6.8,5.3-10.4,7.5c-25.5,16.1-57.2,20-86.1,10.4
		c-9.4-3.2-18.5-7.7-27-13.7c-16.4-11.7-28.3-27.4-35.3-44.9c-12.4-31-9.3-67.5,11.6-96.8c22.1-31,58.5-45.9,93.8-42
		c8.8,0.9,17.5,3,25.9,6.4c7.7,3,15,6.9,22,11.9c8.9,6.4,16.4,13.8,22.6,22.2c6.9,9.3,12.1,19.7,15.4,30.5
		C342.7,201.7,338.5,234.6,319.3,261.4z"/>
	<path class="st1" d="M292.8,167.7c-0.9-1.6-2.5-2.3-4.6-0.6c-2.8,2.3-5.5,7.3-6.4,10.8c-1.1,4.3-5,5.2-7.7,8.3
		c-0.2,0.3-0.6,0.7-0.4,1.1c0.1,0.4,0.4,0.6,0.7,0.8c2.6,1.9,5.2,3.7,7.8,5.6c2.9,2,7,6.1,10.1,1.5c2.5-3.8-2.5-10.3-1.4-14.7
		c0.4-1.4,1.5-2.5,2.3-3.8C294.3,174.7,294.2,170.1,292.8,167.7z"/>
	<path class="st1" d="M272.9,171.2c-6.2,0.4-0.9,7,2.4,4c0.6-0.5,1.1-1.1,1.2-1.8C276.7,171.7,274.7,171.1,272.9,171.2z"/>
	<path class="st1" d="M320.9,262.6c-4.9,6.9-10.5,13-16.6,18.2c-0.9,0.7-2.2,0.2-2.3-0.9c-0.4-2.3-0.6-4.6-0.9-6.9
		c-0.4-3-5.7-10.4-9.1-9.8c-0.6,0.1-1.1,0.4-1.6,0.4c-0.9,0-1.6-0.5-2.3-1.1c-1.7-1.4-3.2-3-4.5-4.8c-0.6-0.8-1.1-1.7-1.2-2.7
		c0-0.8,0.2-1.5,0.6-2.3c1.7-4.4,3.7-8.6,5.6-12.9c1.3-3,1.2-3.5-1.1-5.6c-1.4-1.2-2.9-2.2-4.3-3.3c-1.9-1.5-2.1-2.3-4.1-1.1
		c-2.4,1.4-4.3,4.8-6.2,6.8c-1.6,1.6-2.2,3.8-2.2,6.1c0.1,2.7,1,5.3,1.2,8c0.1,1.6-0.1,3.2-1.1,4.5c-3.6,4.8-11,0.7-15.2,4.4
		c-1.5,1.4-2.5,3.4-4.1,4.6c-0.1,0.1-0.3,0.2-0.4,0.2c-1.7-0.1-2.5-6.1-2.5-7.3c0.3-5.6,5.8-1.5,8.8-2.8c2.5-1.1,4.3-3.2,5.8-5.3
		c2.3-3.2,6-9.5,3.2-13.3c-1-1.4-3,0-4.6,0.9c-0.8,0.4-3.2,3.8-3.3,3.8c-2.5,0.4-4.8,0.6-7.2-0.6c-4.3-2-6.7-6.1-11.6-2.7
		c-2.3,1.6-2.9,4.3-3.8,6.9c-0.7,2-1.7,4.1-3.6,5.2c-2.9,1.5-9.7-0.3-12-2.5c-3.6-3.5-10.8-7-9.9-13c0.3-1.9,1.2-3.5,2.3-5.1
		c2.3-3.4,5.6-12.1,9.5-13.8l1.5,0.7c2.3,2.2,4.9,4.1,8.3,3.1c0.5-0.1,0.9-0.5,1.2-0.8c4-3.3,6.8-7.4,9.9-11.4
		c1.1-1.4,2.2-2.7,3.2-4c0.5-0.6,1.1-1.3,1.9-1.5c1.5-0.5,4,2.4,5.6,2.8c2.2,0.6,4.4,0,6.5-0.7c3.3-1.1,5.6,3.5,8.5,1.5
		c0.5-0.3,0.8-0.7,1.1-1.2c1.1-1.5,2.2-3.1,3.3-4.7c2.2,0.1,6.4,0.7,8.1,2.2l3.2,2.9l6.9,2.3c0,0,2.6,1.3,4.4,1.2
		c1.9-0.1,3.3-0.1,5.5-1.4c2.3-1.3,3-0.8,5.3-1.9c2.2-1.1,2.8-0.6,2.8-0.6l5.3,0.4c4.6-0.3,8.6-0.9,11.9-4.4
		c2.3-2.4,3.7-5.5,4.7-8.7c0.6-1.9,1.1-4,0.4-5.9c-0.4-1.2-1.1-2.2-1.5-3.3c-1.2-2.8-0.4-8.8,3.1-10.1c0.6-0.2,1.2-0.1,1.7,0.4
		C344.7,201.7,340.4,235.2,320.9,262.6z"/>
	<path class="st1" d="M247.9,116c-4.6,2.3-9.9,1.4-15,2c-4.8,0.6-10.1-0.9-14.8,0.6c-2.5,0.7-5,0.7-7.5,1.3
		c-2.9,0.8-5.6,2.6-8.1,4.3c-1.9,1.4-3.8,2.8-4.9,4.9c-2.7,5.1,0,11.6,0.5,16.9c0.4,4.2-0.5,8-1.7,12c-2.2,7.7-8.9,13.1-14.9,17.9
		c-3.9,3.1-7.8,6.2-11.6,9.5c-4.1,3.5-8.6,7.1-11.2,11.9c-2.7,4.9-3,10.7-3.6,16.1c-0.4,3-1.1,6-1.7,9c-0.9,3.7-0.7,7.2-3,10.4
		c-1.5,2-2.7,4.5-4.8,6.1c0,0,0,0-0.1,0c-2.3,1.7-5.7,0.6-6.6-2.2c-10.8-30.6-7-65.9,13.3-94.4c22.1-31,58.1-46.2,93.6-43
		c1.3,0.1,2.5,0.8,3.2,1.9c0.2,0.4,0.5,0.7,0.7,1.1c0.1,0.2,0.2,0.4,0.2,0.7c0.6,3,2.5,7.2,0.9,10.2
		C250.4,114.4,249.2,115.4,247.9,116z"/>
	<path class="st2" d="M247.9,116c-4.6,2.3-9.9,1.4-15,2c-4.8,0.6-10.1-0.9-14.8,0.6c-2.5,0.7-5,0.7-7.5,1.3
		c-2.9,0.8-5.6,2.6-8.1,4.3c-1.9,1.4-3.8,2.8-4.9,4.9c-2.7,5.1,0,11.6,0.5,16.9c0.4,4.2-0.5,8-1.7,12c-2.2,7.7-8.9,13.1-14.9,17.9
		c-3.9,3.1-7.8,6.2-11.6,9.5c-4.1,3.5-8.6,7.1-11.2,11.9c-2.7,4.9-3,10.7-3.6,16.1c-0.4,3-1.1,6-1.7,9c-0.9,3.7-0.7,7.2-3,10.4
		c-1.5,2-2.7,4.5-4.8,6.1c0,0,0,0-0.1,0c-2.3,1.7-5.7,0.6-6.6-2.2c-10.8-30.6-7-65.9,13.3-94.4c22.1-31,58.1-46.2,93.6-43
		c1.3,0.1,2.5,0.8,3.2,1.9c0.2,0.4,0.5,0.7,0.7,1.1c0.1,0.2,0.2,0.4,0.2,0.7c0.6,3,2.5,7.2,0.9,10.2
		C250.4,114.4,249.2,115.4,247.9,116z"/>
	<path class="st1" d="M315.6,137.2c1.9,2.3,0.2,5.8-2.8,5.7h-0.1c-3.2-0.1-6.4-1.3-8.8-3.5c-4.6-4.2-8.8-8.8-14.1-12.2
		c-2.9-2-6.1-3.7-8.2-6.6c-2.9-3.8-4.4-8.3-7-12.3c-0.3-0.5-2.5-0.6-1.1-1.5c1.2-2.5,15.3,7,22.4,12.1
		C303.4,124.4,310,130.6,315.6,137.2z"/>
	<path class="st1" d="M289.9,289.7c-25.4,15.7-56.7,19.8-85.4,10.8c-0.9-0.3-1.4-1.2-1.2-2.2c0-0.1,0.1-0.2,0.1-0.3
		c1-3.7,1.4-7.9-0.1-11.5c-0.6-1.4-1.3-2.6-1.9-3.9c-1.7-4-1.4-8.7,0.6-12.5c0.5-1,1.2-1.9,2.1-2.6c2.8-2,8.2-0.9,11.6-0.6
		c4.6,0.4,9.1,1.1,13.5,2.1c7,1.6,13.8,4.2,21,4.8c2.3,0.2,14,0.3,14.6,2.8v0.1c1.6,5.6,5.4,7.7,10.7,9.4c2.5,0.8,5.2,1.4,7.9,1.7
		c1.2,0.1,6.7,1.1,7.5,0.2c-0.2,0.2-0.3,0.4-0.4,0.6C290.6,289,290.3,289.4,289.9,289.7z"/>
	<path class="st3" d="M289.9,289.7c-25.4,15.7-56.7,19.8-85.4,10.8c-0.9-0.3-1.4-1.2-1.2-2.2c0-0.1,0.1-0.2,0.1-0.3
		c1-3.7,1.4-7.9-0.1-11.5c-0.6-1.4-1.3-2.6-1.9-3.9c-1.7-4-1.4-8.7,0.6-12.5c0.5-1,1.2-1.9,2.1-2.6c2.8-2,8.2-0.9,11.6-0.6
		c4.6,0.4,9.1,1.1,13.5,2.1c7,1.6,13.8,4.2,21,4.8c2.3,0.2,14,0.3,14.6,2.8v0.1c1.6,5.6,5.4,7.7,10.7,9.4c2.5,0.8,5.2,1.4,7.9,1.7
		c1.2,0.1,6.7,1.1,7.5,0.2c-0.2,0.2-0.3,0.4-0.4,0.6C290.6,289,290.3,289.4,289.9,289.7z"/>
	<circle class="st4" cx="232.6" cy="198.1" r="114.9"/>
	<circle class="st4" cx="232.6" cy="198.1" r="131"/>
	<circle class="st5" cx="338.2" cy="113.2" r="15.1"/>
	<circle class="st6" cx="323.1" cy="128.3" r="10.4"/>
	<g>
		<g>
			<path class="st7" d="M209.5,134.8c0.8-0.6,1.6-1.2,2.4-1.8"/>
			<path class="st8" d="M223.1,125.4c59.2-39.8,112.5-56.3,128.4-37c9.4,11.4,4.2,33.2-12,59.6"/>
			<path class="st7" d="M335.9,153.7c-0.5,0.8-1.1,1.7-1.7,2.5"/>
		</g>
	</g>
	<g>
		<g>
			<path class="st7" d="M169.8,301.5c-0.9,0.5-1.8,0.9-2.7,1.4"/>
			<path class="st9" d="M154.8,309c-36.8,17.2-66.1,21.1-77.3,7.6c-9.8-11.9-3.7-34.9,14-62.7"/>
			<path class="st7" d="M95.3,248.2c0.6-0.8,1.1-1.6,1.7-2.5"/>
		</g>
	</g>
	<g>
		<path class="st10" d="M206.6,119.5H97.5c-2.9,0-5.2-2.3-5.2-5.2V82.7c0-2.9,2.3-5.2,5.2-5.2h109.1c2.9,0,5.2,2.3,5.2,5.2v31.7
			C211.7,117.2,209.4,119.5,206.6,119.5"/>
		<polygon class="st10" points="150,111.8 150,111.8 142.6,119.2 150,126.6 157.4,119.2 		"/>
		<text transform="matrix(1 0 0 1 117 105.1445)" class="st11 st12 st13">Winning!</text>
	</g>
</g>
<g>
	<g>
		<g>
			<path class="st14" d="M226.9,171c-0.9-0.9-1.9-1.5-3.1-2c-1.2-0.5-2.4-0.8-3.8-0.8c-1.4,0-2.6,0.2-3.8,0.7
				c-1.1,0.5-2.1,1.1-3,1.9c-0.9,0.8-1.5,1.8-2,2.9c-0.5,1.1-0.8,2.3-0.8,3.6v13.6c-0.1,1.3,0.2,2.5,0.6,3.7c0.5,1.2,1.2,2.2,2,3
				c0.9,0.9,1.9,1.5,3.1,2c1.2,0.5,2.5,0.8,4,0.8c1.3,0,2.4-0.2,3.6-0.7c1.1-0.5,2.1-1.1,3-1.9c0.9-0.8,1.5-1.8,2-2.9
				c0.5-1.1,0.8-2.3,0.8-3.6l0.1-13.6c0-1.3-0.2-2.5-0.7-3.7C228.5,172.8,227.8,171.8,226.9,171z"/>
			<path class="st14" d="M252.1,142.7H47.9c-3.7,0-6.8,3.1-6.8,6.8v71.6c0,3.7,3.1,6.8,6.8,6.8h204.3c3.7,0,6.8-3.1,6.8-6.8v-71.6
				C258.9,145.7,255.9,142.7,252.1,142.7z M50.2,222.4c-2,0-3.7-1.7-3.7-3.7c0-2,1.7-3.7,3.7-3.7c2,0,3.7,1.7,3.7,3.7
				C53.9,220.7,52.3,222.4,50.2,222.4z M50.2,155.6c-2,0-3.7-1.7-3.7-3.7c0-2,1.7-3.7,3.7-3.7c2,0,3.7,1.7,3.7,3.7
				C53.9,153.9,52.3,155.6,50.2,155.6z M99.2,201.8c1.1,1.1,1.7,2.5,1.7,4c0,1.6-0.6,2.9-1.7,4.1c-1.1,1.1-2.5,1.6-4.1,1.6
				c-1.6,0-2.9-0.5-4.1-1.6l-19.9-17.6v13.4c0,1.6-0.6,2.9-1.7,4c-1.1,1.1-2.5,1.7-4.1,1.7c-1.6,0-3-0.6-4.1-1.7
				c-1.1-1.1-1.7-2.5-1.7-4v-43c0-1.5,0.6-2.9,1.7-4c1.1-1.1,2.5-1.7,4.1-1.7c1.6,0,3,0.6,4.1,1.7c1.1,1.1,1.7,2.5,1.7,4v13.4
				L91,158.9c1.2-1.1,2.6-1.7,4.1-1.7c1.6,0,2.9,0.6,4.1,1.7c1.1,1.1,1.7,2.5,1.7,4.1c0,1.6-0.6,2.9-1.7,4l-19.9,17.4L99.2,201.8z
				 M147.7,205.8c0,1.5-0.5,2.8-1.6,3.8c-1.1,1.1-2.3,1.6-3.9,1.7c-1.5,0-2.9-0.5-4-1.5c-1.1-1-1.7-2.3-1.7-3.8v-10h-19v9.7
				c0,1.5-0.6,2.8-1.7,3.9c-1.1,1.1-2.4,1.7-3.9,1.7c-1.5,0-2.8-0.5-3.9-1.5c-1.1-1-1.7-2.3-1.7-3.8v-28.3c0.1-2.8,0.6-5.5,1.7-8
				c1.1-2.5,2.5-4.7,4.3-6.6c1.8-1.9,4-3.4,6.5-4.4c2.5-1.1,5.2-1.6,8.2-1.6c2.7,0,5.3,0.5,7.8,1.5c2.5,1,4.7,2.4,6.6,4.2
				c1.9,1.8,3.4,3.9,4.5,6.4c1.1,2.4,1.7,5.1,1.7,7.9V205.8z M194.4,206c0,1.5-0.5,2.8-1.6,3.8c-1.1,1.1-2.3,1.6-3.9,1.7
				c-1.5,0-2.9-0.5-4-1.5c-1.1-1-1.7-2.3-1.7-3.8V178c0-1.3-0.2-2.5-0.7-3.7c-0.5-1.2-1.2-2.2-2-3c-0.9-0.9-1.9-1.5-3.1-2
				c-1.2-0.5-2.4-0.8-3.8-0.8c-1.2,0-2.4,0.2-3.6,0.7c-1.1,0.5-2.1,1.1-3,1.9c-0.9,0.8-1.5,1.8-2,2.9c-0.5,1.1-0.8,2.3-0.8,3.6V206
				c0,1.5-0.6,2.8-1.7,3.9c-1.1,1.1-2.4,1.7-3.9,1.7c-1.5,0-2.8-0.5-3.9-1.5c-1.1-1-1.7-2.3-1.7-3.8V178c0.1-2.8,0.6-5.5,1.7-8
				c1-2.5,2.5-4.7,4.3-6.6c1.8-1.9,4-3.4,6.5-4.4c2.5-1.1,5.2-1.6,8.2-1.6c2.7,0,5.3,0.5,7.8,1.5c2.5,1,4.7,2.4,6.6,4.2
				c1.9,1.8,3.4,3.9,4.5,6.4c1.1,2.4,1.7,5.1,1.7,7.9V206z M240.8,190.9c0,2.8-0.5,5.5-1.6,8c-1.1,2.5-2.5,4.7-4.3,6.6
				c-1.8,1.9-4,3.4-6.5,4.4c-2.5,1.1-5.2,1.6-8.2,1.6c-2.8,0-5.5-0.5-8-1.5c-2.5-1-4.7-2.4-6.6-4.2c-1.9-1.8-3.4-3.9-4.5-6.4
				c-1.1-2.4-1.7-5.1-1.7-7.9v-13.9c0-2.8,0.5-5.5,1.6-8c1.1-2.5,2.5-4.7,4.3-6.6c1.8-1.9,4-3.4,6.5-4.4c2.5-1.1,5.3-1.6,8.4-1.6
				c2.7,0,5.3,0.5,7.8,1.5c2.5,1,4.7,2.4,6.6,4.2c1.9,1.8,3.4,3.9,4.5,6.4c1.1,2.4,1.7,5.1,1.7,7.9V190.9z M249.8,222.4
				c-2,0-3.7-1.7-3.7-3.7c0-2,1.7-3.7,3.7-3.7c2,0,3.7,1.7,3.7,3.7C253.5,220.7,251.8,222.4,249.8,222.4z M249.8,155.6
				c-2,0-3.7-1.7-3.7-3.7c0-2,1.7-3.7,3.7-3.7c2,0,3.7,1.7,3.7,3.7C253.5,153.9,251.8,155.6,249.8,155.6z"/>
			<path class="st14" d="M133.9,171c-0.9-0.9-1.9-1.5-3.1-2c-1.2-0.5-2.4-0.8-3.8-0.8c-1.3,0-2.4,0.2-3.6,0.7
				c-1.1,0.5-2.1,1.1-3,1.9c-0.9,0.8-1.5,1.8-2,2.9c-0.5,1.1-0.8,2.3-0.8,3.6v7.7h19v-7.2c0-1.3-0.2-2.5-0.7-3.7
				C135.4,172.8,134.8,171.8,133.9,171z"/>
		</g>
	</g>
</g>
</svg>
